<svg xmlns="http://www.w3.org/2000/svg" viewBox="0 0 1000 400"><g id="_x31_"><linearGradient id="SVGID_1_" x1="-59.015" x2="-120.44" y1="295.582" y2="115.96" gradientTransform="rotate(180 151.49 200.675)" gradientUnits="userSpaceOnUse"><stop offset="0" stop-color="#cd061d"/><stop offset="1" stop-color="#f47f00"/></linearGradient><path fill="url(#SVGID_1_)" d="M329.7 94.8h56.1l66.5 191.7c-37.1-7-67.7-33.4-80-69.1L329.7 94.8z"/></g><g id="_x32_"><linearGradient id="SVGID_2_" x1="278.56" x2="357.29" y1="323.055" y2="96.324" gradientUnits="userSpaceOnUse"><stop offset=".004" stop-color="#cd061d"/><stop offset="1" stop-color="#f47f00"/></linearGradient><path fill="url(#SVGID_2_)" d="M301.7 337.2h-56.1l84.1-242.4h56.1z"/></g><g id="_x33_"><linearGradient id="SVGID_3_" x1="111.711" x2="187.173" y1="324.104" y2="96.265" gradientUnits="userSpaceOnUse"><stop offset="0" stop-color="#f47f00"/><stop offset="1" stop-color="#cd061d"/></linearGradient><path fill="url(#SVGID_3_)" d="M133.5 337.2H77.4l84.1-242.4h56.1z"/></g><g id="_x34_"><linearGradient id="SVGID_4_" x1="268.248" x2="190.783" y1="323.467" y2="96.3" gradientUnits="userSpaceOnUse"><stop offset="0" stop-color="#d9251b"/><stop offset="1" stop-color="#f47f00"/></linearGradient><path fill="url(#SVGID_4_)" d="M301.7 337.2h-56.1L161.5 94.8h56.1z"/></g><g id="_x35_"><linearGradient id="SVGID_5_" x1="101.646" x2="42.757" y1="332.146" y2="150.789" gradientUnits="userSpaceOnUse"><stop offset="0" stop-color="#d9251b"/><stop offset="1" stop-color="#f47f00"/></linearGradient><path fill="url(#SVGID_5_)" d="M133.5 337.2H77.4L10.9 145.5c37.1 7 67.7 33.4 80 69.1l42.6 122.6z"/></g><g id="_x36_"><path d="M599.5 194.9l-26.2 46.4h-6.1l-7.8-37.9-21.7 37.9h-6l-9.1-46.4h5.7l7.5 39.3 22.4-39.3h5.3l7.8 39.3 22-39.3h6.2zM605.3 219.8c-.1.4-.1 1-.1 1.9 0 4.7 1.3 8.3 4 10.7 2.7 2.5 6.7 3.7 11.9 3.7 3.1 0 5.9-.5 8.6-1.5 2.7-1 4.9-2.5 6.6-4.3l2.8 4.5c-2.2 2.2-4.9 3.9-8.2 5.1-3.3 1.2-6.7 1.8-10.4 1.8-6.7 0-12-1.8-15.8-5.3-3.8-3.5-5.8-8.3-5.8-14.5 0-5.2 1.1-9.8 3.3-14 2.2-4.2 5.3-7.4 9.2-9.8 3.9-2.4 8.3-3.6 13.2-3.6 6.2 0 11.1 1.7 14.7 5.2 3.6 3.5 5.5 8.3 5.5 14.4 0 1.7-.2 3.6-.6 5.6h-38.9zm7.3-15.9c-3.3 2.8-5.5 6.5-6.7 11.2h33c.1-.4.1-1 .1-1.7 0-4.4-1.3-7.7-4-10.1-2.6-2.4-6.2-3.6-10.6-3.6-4.5.1-8.5 1.5-11.8 4.2zM694.6 196.9c3.1 1.6 5.5 3.8 7.2 6.8 1.7 2.9 2.6 6.4 2.6 10.4 0 5.2-1.1 10-3.4 14.1-2.3 4.2-5.4 7.5-9.4 9.9-4 2.4-8.5 3.6-13.5 3.6-4.5 0-8.2-.9-11.2-2.7-3-1.8-5.2-4.4-6.5-7.8l-2 10.1h-6l13-65.4h6.3l-5.2 26c2.2-2.4 4.8-4.2 7.8-5.4 3-1.3 6.2-1.9 9.8-1.9 3.9-.1 7.4.7 10.5 2.3zm-6.4 36.4c3-1.9 5.4-4.4 7.1-7.7 1.7-3.3 2.6-7 2.6-11.2 0-4.5-1.3-8.1-4-10.6-2.7-2.6-6.4-3.8-11.2-3.8-3.8 0-7.2.9-10.3 2.8-3 1.9-5.4 4.4-7.1 7.8-1.7 3.3-2.6 7.1-2.6 11.2 0 4.5 1.3 8.1 4 10.6s6.4 3.8 11.2 3.8c3.9-.1 7.3-1 10.3-2.9zM789.3 198.4c2.9 2.6 4.3 6.3 4.3 11 0 1.4-.2 3.2-.6 5.5l-5.3 26.4h-6.3l5.3-26.4c.3-1.4.4-2.8.4-4.3 0-3.3-1-5.8-2.9-7.6-1.9-1.8-4.8-2.7-8.6-2.7-4.7 0-8.6 1.3-11.7 3.9-3.1 2.6-5.2 6.5-6.3 11.6l-5.1 25.6h-6.3l5.3-26.4c.3-1.6.4-3.1.4-4.2 0-3.4-1-5.9-2.9-7.7-1.9-1.8-4.8-2.7-8.6-2.7-4.8 0-8.7 1.4-11.8 4.1-3.1 2.7-5.2 6.8-6.3 12.1l-4.9 24.9h-6.3l9.2-46.4h6l-1.5 7.4c4.2-5.2 10.1-7.8 17.5-7.8 3.9 0 7.1.8 9.7 2.4 2.6 1.6 4.4 3.9 5.4 6.9 2.3-3.1 5.1-5.4 8.4-6.9 3.3-1.6 7-2.3 11.1-2.3 5.5-.3 9.6 1 12.4 3.6zM810.8 219.8c-.1.4-.1 1-.1 1.9 0 4.7 1.3 8.3 4 10.7 2.7 2.5 6.7 3.7 11.9 3.7 3.1 0 5.9-.5 8.6-1.5 2.7-1 4.9-2.5 6.6-4.3l2.8 4.5c-2.2 2.2-4.9 3.9-8.2 5.1-3.3 1.2-6.7 1.8-10.4 1.8-6.7 0-12-1.8-15.8-5.3-3.8-3.5-5.8-8.3-5.8-14.5 0-5.2 1.1-9.8 3.3-14 2.2-4.2 5.3-7.4 9.2-9.8 3.9-2.4 8.3-3.6 13.2-3.6 6.2 0 11.1 1.7 14.7 5.2 3.6 3.5 5.5 8.3 5.5 14.4 0 1.7-.2 3.6-.6 5.6h-38.9zm7.3-15.9c-3.3 2.8-5.5 6.5-6.7 11.2h33c.1-.4.1-1 .1-1.7 0-4.4-1.3-7.7-4-10.1-2.6-2.4-6.2-3.6-10.6-3.6-4.6.1-8.5 1.5-11.8 4.2zM913.5 175.8l-13 65.4h-6l1.5-7.3c-2.2 2.5-4.9 4.4-7.9 5.7-3.1 1.4-6.4 2-10.1 2-3.9 0-7.4-.8-10.5-2.4-3.1-1.6-5.4-3.9-7.1-6.8-1.7-3-2.6-6.4-2.6-10.4 0-5.2 1.1-9.9 3.4-14.1 2.3-4.2 5.4-7.4 9.4-9.8 4-2.4 8.5-3.6 13.4-3.6 4.4 0 8 .9 11.1 2.6 3 1.7 5.2 4.2 6.6 7.4l5.7-28.7h6.1zm-23.9 57.5c3.1-1.9 5.4-4.4 7.2-7.8 1.7-3.3 2.6-7 2.6-11.1 0-4.5-1.3-8.1-4-10.6-2.7-2.6-6.4-3.8-11.2-3.8-3.8 0-7.3.9-10.3 2.8-3.1 1.9-5.5 4.5-7.2 7.8-1.7 3.3-2.6 7-2.6 11.1 0 4.5 1.3 8.1 4 10.6s6.4 3.8 11.2 3.8c3.8 0 7.2-.9 10.3-2.8zM926.7 194.9h6.3l-9.2 46.4h-6.3l9.2-46.4zm2.8-11.4c-.8-.8-1.2-1.8-1.2-2.9 0-1.4.5-2.5 1.4-3.4.9-.9 2.1-1.4 3.5-1.4 1.2 0 2.3.4 3.1 1.2.8.8 1.2 1.7 1.2 2.8 0 1.4-.5 2.6-1.4 3.5-.9.9-2.1 1.4-3.5 1.4-1.3 0-2.3-.4-3.1-1.2zM993.2 194.9l-9.3 46.4h-6l1.5-7.3c-2.2 2.5-4.9 4.4-7.9 5.7-3.1 1.4-6.4 2-10.1 2-3.9 0-7.4-.8-10.5-2.4-3.1-1.6-5.4-3.9-7.1-6.8-1.7-3-2.6-6.4-2.6-10.4 0-5.2 1.1-9.9 3.4-14.1 2.3-4.2 5.4-7.4 9.4-9.8 4-2.4 8.5-3.6 13.4-3.6 4.4 0 8.1.9 11.1 2.6 3 1.7 5.2 4.2 6.5 7.4l1.9-9.7h6.3zM973 233.3c3.1-1.9 5.4-4.4 7.2-7.8 1.7-3.3 2.6-7 2.6-11.1 0-4.5-1.3-8.1-4-10.6-2.7-2.6-6.4-3.8-11.2-3.8-3.8 0-7.3.9-10.3 2.8-3.1 1.9-5.5 4.5-7.2 7.8-1.7 3.3-2.6 7-2.6 11.1 0 4.5 1.3 8.1 4 10.6s6.4 3.8 11.2 3.8c3.8 0 7.3-.9 10.3-2.8z" class="st5" fill="#000" style="&#10;    fill: #fff;&#10;"/></g></svg>